<svg width="34" height="34" viewBox="0 0 34 34" fill="none" xmlns="http://www.w3.org/2000/svg">
<rect width="34" height="34" rx="10" fill="white"/>
<path d="M10.28 25C10.104 25 9.96 24.944 9.848 24.832C9.736 24.72 9.68 24.576 9.68 24.4V8.8C9.68 8.624 9.736 8.48 9.848 8.368C9.96 8.256 10.104 8.2 10.28 8.2H12.824C13.096 8.2 13.288 8.264 13.4 8.392C13.528 8.504 13.608 8.592 13.64 8.656L19.496 17.896V8.8C19.496 8.624 19.552 8.48 19.664 8.368C19.776 8.256 19.92 8.2 20.096 8.2H22.976C23.152 8.2 23.296 8.256 23.408 8.368C23.52 8.48 23.576 8.624 23.576 8.8V24.4C23.576 24.56 23.52 24.704 23.408 24.832C23.296 24.944 23.152 25 22.976 25H20.408C20.152 25 19.96 24.936 19.832 24.808C19.72 24.68 19.648 24.592 19.616 24.544L13.76 15.664V24.4C13.76 24.576 13.704 24.72 13.592 24.832C13.48 24.944 13.336 25 13.16 25H10.28Z" fill="#7296EE"/>
</svg>
